<svg width="16" height="15" viewBox="0 0 16 15" fill="currentColor" xmlns="http://www.w3.org/2000/svg">
<g clip-path="url(#clip0_80_256)">
<path d="M2.17969 3.23145C1.80673 3.23145 1.44904 3.36973 1.18532 3.61587C0.921596 3.86201 0.773438 4.19585 0.773438 4.54395L0.773438 5.85645C0.773438 5.97248 0.822824 6.08376 0.910731 6.1658C0.998639 6.24785 1.11787 6.29395 1.24219 6.29395C1.61515 6.29395 1.97283 6.43223 2.23656 6.67837C2.50028 6.92451 2.64844 7.25835 2.64844 7.60645C2.64844 7.95454 2.50028 8.28838 2.23656 8.53452C1.97283 8.78066 1.61515 8.91895 1.24219 8.91895C1.11787 8.91895 0.998639 8.96504 0.910731 9.04709C0.822824 9.12913 0.773438 9.24041 0.773438 9.35645L0.773438 10.6689C0.773438 11.017 0.921596 11.3509 1.18532 11.597C1.44904 11.8432 1.80673 11.9814 2.17969 11.9814H14.3672C14.7401 11.9814 15.0978 11.8432 15.3616 11.597C15.6253 11.3509 15.7734 11.017 15.7734 10.6689V9.35645C15.7734 9.24041 15.7241 9.12913 15.6361 9.04709C15.5482 8.96504 15.429 8.91895 15.3047 8.91895C14.9317 8.91895 14.574 8.78066 14.3103 8.53452C14.0466 8.28838 13.8984 7.95454 13.8984 7.60645C13.8984 7.25835 14.0466 6.92451 14.3103 6.67837C14.574 6.43223 14.9317 6.29395 15.3047 6.29395C15.429 6.29395 15.5482 6.24785 15.6361 6.1658C15.7241 6.08376 15.7734 5.97248 15.7734 5.85645V4.54395C15.7734 4.19585 15.6253 3.86201 15.3616 3.61587C15.0978 3.36973 14.7401 3.23145 14.3672 3.23145H2.17969Z" fill="currentColor"/>
</g>
<defs>
<clipPath id="clip0_80_256">
<rect width="15" height="14" fill="currentColor" transform="translate(0.773438 0.606445)"/>
</clipPath>
</defs>
</svg>
